<?xml version="1.0" encoding="iso-8859-1"?>
<!-- Generator: Adobe Illustrator 19.0.0, SVG Export Plug-In . SVG Version: 6.00 Build 0)  -->
<svg version="1.1" id="Capa_1" xmlns="http://www.w3.org/2000/svg" xmlns:xlink="http://www.w3.org/1999/xlink" x="0px" y="0px"
	 viewBox="0 0 512 512" style="enable-background:new 0 0 512 512;" xml:space="preserve">
<path style="fill:#FFC66C;" d="M284.884,198h-57.649c-61.401,0-111.176,49.775-111.176,111.176v81.649
	C116.06,452.225,165.835,502,227.236,502h57.649c61.401,0,111.176-49.775,111.176-111.176v-81.649
	C396.06,247.775,346.285,198,284.884,198z"/>
<g>
	<path style="fill:#62CD4D;" d="M255.932,201.602c30.233-56.37,93.499-95.127,166.751-95.127c0,0-50.99,41.027-77.396,102.025
		L255.932,201.602z"/>
	<path style="fill:#62CD4D;" d="M166.714,208.5c-26.406-60.998-77.396-102.025-77.396-102.025
		c73.251,0,136.518,38.757,166.751,95.127L166.714,208.5z"/>
</g>
<g>
	<path style="fill:#A0E557;" d="M215.731,99.961c0-49.73,29.092-89.961,40.345-89.961c9.522,0,40.157,40.231,40.157,89.961
		l-40.074,48.599L215.731,99.961z"/>
	<path style="fill:#A0E557;" d="M180.582,127.419c-18.419-49.087-51.237-81.767-51.237-81.767
		c70.104,0,126.831,64.337,126.831,143.844L180.582,127.419z"/>
	<path style="fill:#A0E557;" d="M255.985,189.497c0-79.508,56.727-143.844,126.831-143.844c0,0-32.818,32.68-51.237,81.767
		L255.985,189.497z"/>
</g>
<path d="M432.114,103.152c-1.409-4-5.189-6.677-9.432-6.677c-24.867,0-49.083,3.948-71.538,11.517
	c17.202-33.488,38.475-55,38.727-55.253c2.869-2.856,3.732-7.161,2.188-10.903c-1.546-3.742-5.194-6.183-9.243-6.183
	c-29.733,0-57.968,10.543-81.357,30.052c-4.015-14.463-9.927-28.444-17.173-40.428C277.315,13.745,266.762,0,256.082,0
	c-11.511,0-22.194,13.829-29.13,25.43c-7.004,11.716-12.712,25.535-16.603,39.984c-23.321-19.321-51.419-29.762-81.003-29.762
	c-4.045,0-7.688,2.44-9.235,6.177s-0.688,8.042,2.172,10.902c0.259,0.259,21.56,21.8,38.768,55.325
	c-22.509-7.611-46.794-11.582-71.732-11.582c-4.242,0-8.022,2.676-9.432,6.677c-1.409,4.001-0.142,8.456,3.163,11.115
	c0.114,0.092,11.632,9.409,26.371,25.64c3.713,4.089,10.038,4.393,14.126,0.68c4.089-3.712,4.394-10.037,0.681-14.125
	c-2.693-2.965-5.285-5.715-7.736-8.239c20.459,2.663,39.806,8.329,57.366,16.589c1.404,1.275,3.143,2.122,5.004,2.45
	c24.047,12.237,44.449,29.494,59.317,50.739h-10.942c-19.082,0-37.145,4.44-53.218,12.331c-3.13-6.848-6.673-13.735-10.576-20.531
	c-2.749-4.789-8.859-6.443-13.652-3.692c-4.789,2.75-6.441,8.863-3.691,13.652c3.986,6.941,7.542,13.969,10.632,20.923
	c-30.659,22.01-50.67,57.957-50.67,98.494v81.648C106.06,457.641,160.419,512,227.236,512h57.648
	c66.816,0,121.176-54.359,121.176-121.176v-81.648c0-40.582-20.056-76.566-50.773-98.569c25.287-56.869,73.184-95.953,73.664-96.341
	C432.255,111.607,433.523,107.152,432.114,103.152z M358.786,58.5c-10.753,14.129-24.507,35.115-34.797,60.853
	c-1.897,0.965-3.777,1.956-5.636,2.98c-19.3,10.627-36.172,24.221-49.967,40.127C277.73,110.473,313.466,69.395,358.786,58.5z
	 M347.496,229.756l-22.654,22.654L280.432,208h4.452C308.505,208,330.259,216.138,347.496,229.756z M256.425,461.463l-56.176-56.176
	l56.176-56.176l56.176,56.176L256.425,461.463z M186.106,391.145l-54.274-54.274l56.176-56.176l54.274,54.274L186.106,391.145z
	 M202.15,266.552l54.274-54.274l54.274,54.274l-54.274,54.275L202.15,266.552z M255.741,20.804
	c6.485,5.599,22.591,28.401,29.059,61.286c-12.469,14.38-22.147,31.042-28.719,49.149c-6.618-18.236-16.387-35.008-28.984-49.457
	C233.223,49.582,248.667,26.206,255.741,20.804z M193.649,122.333c-1.792-0.987-3.606-1.941-5.435-2.873
	c-10.295-25.786-24.071-46.812-34.839-60.96c45.391,10.913,81.17,52.103,90.447,104.207
	C229.988,146.695,213.047,133.013,193.649,122.333z M232.417,208l-44.409,44.409l-22.975-22.975
	C182.204,216.011,203.801,208,227.236,208H232.417z M150.557,243.243l23.309,23.309l-47.806,47.805v-5.182
	C126.06,284.011,135.297,260.964,150.557,243.243z M126.06,359.384l45.904,45.904l-33.691,33.691
	c-7.786-14.327-12.212-30.734-12.212-48.155L126.06,359.384L126.06,359.384z M149.743,455.794l36.364-36.364l56.176,56.176
	l-16.309,16.309c-0.022,0.022-0.041,0.047-0.063,0.069C195.371,491.589,168.052,477.598,149.743,455.794z M284.884,492h-30.711
	l72.57-72.57l35.969,35.969C344.138,477.746,316.146,492,284.884,492z M374.1,438.501l-33.214-33.214l45.174-45.174v30.711
	C386.06,408.053,381.727,424.287,374.1,438.501z M386.06,309.176v22.652l-59.317,59.317l-56.176-56.176l54.275-54.275l12.512,12.512
	c1.953,1.952,4.512,2.929,7.071,2.929s5.118-0.977,7.071-2.929c3.905-3.905,3.905-10.237,0-14.143l-12.512-12.512l22.914-22.913
	C376.956,261.307,386.06,284.196,386.06,309.176z M338.004,200.282C321.955,192.421,303.927,188,284.884,188h-11.063
	c14.851-21.218,35.221-38.458,59.23-50.692c2.024-0.304,3.914-1.23,5.405-2.643c17.459-8.172,36.676-13.783,56.988-16.434
	C378.316,135.846,354.38,164.436,338.004,200.282z"/>
<path d="M136.635,167.222c2.083,0,4.184-0.648,5.98-1.992c4.423-3.307,5.328-9.574,2.021-13.997l-0.117-0.157
	c-3.308-4.424-9.573-5.329-13.997-2.021c-4.423,3.307-5.328,9.574-2.021,13.997l0.117,0.157
	C130.583,165.836,133.589,167.222,136.635,167.222z"/>
<path d="M359.94,301.649c-1.86,1.86-2.93,4.44-2.93,7.07s1.069,5.21,2.93,7.07c1.86,1.859,4.439,2.93,7.07,2.93
	c2.63,0,5.21-1.07,7.069-2.93c1.86-1.86,2.931-4.44,2.931-7.07s-1.07-5.21-2.931-7.07c-1.859-1.859-4.439-2.93-7.069-2.93
	C364.379,298.72,361.8,299.79,359.94,301.649z"/>
<path d="M263.129,261.66c-1.859-1.86-4.439-2.931-7.069-2.931s-5.21,1.07-7.07,2.931c-1.86,1.859-2.93,4.439-2.93,7.08
	c0,2.63,1.069,5.199,2.93,7.069c1.86,1.86,4.44,2.931,7.07,2.931s5.2-1.07,7.069-2.931c1.86-1.87,2.931-4.439,2.931-7.069
	C266.06,266.1,264.99,263.53,263.129,261.66z"/>
<path d="M263.129,399.91c-1.859-1.86-4.439-2.931-7.069-2.931s-5.21,1.07-7.07,2.931c-1.86,1.859-2.93,4.439-2.93,7.069
	c0,2.641,1.069,5.21,2.93,7.07s4.44,2.93,7.07,2.93s5.21-1.06,7.069-2.93c1.86-1.86,2.931-4.44,2.931-7.07
	S264.99,401.77,263.129,399.91z"/>
<path d="M185.81,328.359c-2.63,0-5.21,1.07-7.07,2.931c-1.86,1.859-2.93,4.439-2.93,7.069c0,2.631,1.069,5.21,2.93,7.07
	s4.44,2.93,7.07,2.93s5.21-1.069,7.069-2.93c1.86-1.86,2.931-4.439,2.931-7.07c0-2.63-1.07-5.21-2.931-7.069
	C191.02,329.43,188.44,328.359,185.81,328.359z"/>
<path d="M327.04,328.359c-2.63,0-5.21,1.07-7.069,2.931c-1.86,1.859-2.931,4.439-2.931,7.069c0,2.631,1.07,5.21,2.931,7.07
	c1.859,1.86,4.439,2.93,7.069,2.93s5.21-1.069,7.07-2.93s2.93-4.439,2.93-7.07c0-2.63-1.069-5.21-2.93-7.069
	C332.25,329.43,329.669,328.359,327.04,328.359z"/>
<path d="M327.03,451.939c-2.64,0-5.21,1.07-7.08,2.931c-1.86,1.859-2.92,4.439-2.92,7.069s1.06,5.21,2.92,7.07
	c1.87,1.86,4.44,2.93,7.08,2.93c2.63,0,5.2-1.069,7.07-2.93c1.859-1.87,2.93-4.44,2.93-7.07s-1.07-5.21-2.93-7.069
	C332.24,453.01,329.66,451.939,327.03,451.939z"/>
<path d="M192.87,454.87c-1.859-1.86-4.439-2.931-7.069-2.931c-2.641,0-5.211,1.061-7.08,2.931c-1.86,1.859-2.92,4.43-2.92,7.069
	c0,2.63,1.06,5.21,2.92,7.07c1.869,1.86,4.439,2.93,7.08,2.93c2.63,0,5.21-1.069,7.069-2.93c1.86-1.86,2.92-4.44,2.92-7.07
	C195.79,459.3,194.73,456.729,192.87,454.87z"/>
<g>
</g>
<g>
</g>
<g>
</g>
<g>
</g>
<g>
</g>
<g>
</g>
<g>
</g>
<g>
</g>
<g>
</g>
<g>
</g>
<g>
</g>
<g>
</g>
<g>
</g>
<g>
</g>
<g>
</g>
</svg>
